<svg width="256" height="256" viewBox="0 0 256 256" fill="none" xmlns="http://www.w3.org/2000/svg">
  <rect width="256" height="256" rx="56" fill="#0B1F1C"/>
  <rect x="20" y="20" width="216" height="216" rx="44" fill="url(#bg)"/>
  <path d="M128 52L188 86V160C188 183.333 168 202.333 128 216C88 202.333 68 183.333 68 160V86L128 52Z" fill="#F4EDE2"/>
  <path d="M128 70L174 96.1V157.6C174 174.4 159.1 188.9 128 200.3C96.9 188.9 82 174.4 82 157.6V96.1L128 70Z" fill="#0F766E"/>
  <path d="M128 95L152.6 142H103.4L128 95Z" fill="#F4EDE2"/>
  <path d="M109 157H147" stroke="#F4EDE2" stroke-width="12" stroke-linecap="round"/>
  <defs>
    <linearGradient id="bg" x1="42" y1="30" x2="222" y2="232" gradientUnits="userSpaceOnUse">
      <stop stop-color="#123B36"/>
      <stop offset="1" stop-color="#0F766E"/>
    </linearGradient>
  </defs>
</svg>
